<?xml version="1.0" standalone="no"?>
<!DOCTYPE svg PUBLIC "-//W3C//DTD SVG 20010904//EN"
 "http://www.w3.org/TR/2001/REC-SVG-20010904/DTD/svg10.dtd">
<svg version="1.0" xmlns="http://www.w3.org/2000/svg"
 width="640.000000pt" height="640.000000pt" viewBox="0 0 640.000000 640.000000"
 preserveAspectRatio="xMidYMid meet">
<metadata>
Created by potrace 1.14, written by Peter Selinger 2001-2017
</metadata>
<g transform="translate(0.000000,640.000000) scale(0.100000,-0.100000)"
fill="#000000" stroke="none">
<path d="M220 6388 c-102 -41 -155 -87 -193 -167 l-22 -46 0 -2975 0 -2975 28
-57 c33 -67 93 -121 167 -149 49 -19 108 -19 3013 -17 l2962 3 45 21 c61 28
122 88 151 149 l24 50 2 2960 c2 2822 2 2962 -16 3012 -25 73 -80 136 -149
170 l-57 28 -2965 2 c-2009 1 -2973 -2 -2990 -9z"/>
</g>
</svg>
